# xmcd
#
# Track frame offsets:
#	150
#	21237
#	39902
#	60695
#	80600
#	101982
#	118402
#	141720
#	160902
#	182260
#
# Disc length: 2628 seconds
# Revision: 1
# Processed by: cddbd v1.5.2PL0 Copyright (c) Steve Scherf et al.
# Submitted via: dBpowerAMP V12.0
#
DISCID=8c0a420a
DTITLE=Darrell Nulisch - I Like it That Way
DYEAR=2000
DGENRE=Blues
TTITLE0=You Tore my Playhouse Down
TTITLE1=Getaway Place
TTITLE2=After All
TTITLE3=Love Changes Things
TTITLE4=Worried Dream
TTITLE5=I Like Your Style
TTITLE6=Where my Baby is
TTITLE7=Once in a Lifetime Love
TTITLE8=Mean Old World
TTITLE9=Trick or Treat
EXTD=
EXTT0=
EXTT1=
EXTT2=
EXTT3=
EXTT4=
EXTT5=
EXTT6=
EXTT7=
EXTT8=
EXTT9=
PLAYORDER=
